<svg width="683" height="655" viewBox="0 0 683 655" fill="none" xmlns="http://www.w3.org/2000/svg">
<path d="M331.333 3.19997C329.2 4.53331 326.4 6.79997 325.2 8.13331C324 9.46664 304.267 57.3333 281.333 114.533C258.267 171.6 238.933 218.4 238.133 218.667C237.333 218.933 187.2 222.533 126.667 226.667C3.73342 235.067 8.66675 234.4 2.80009 244.8C-1.06658 251.6 -0.533247 260.133 4.13342 265.867C5.86675 268.133 43.6001 300.533 88.0001 338C132.4 375.6 170.4 407.867 172.4 409.867L176.133 413.467L148.667 523.067C133.6 583.333 121.333 634 121.333 635.6C121.333 640.533 126.933 648.8 132 651.467C134.533 652.933 139.2 654 142.267 654C147.2 654 156.933 648.267 244.533 593.467L341.333 532.8L438.4 593.467L535.333 654.267L542.133 653.733C551.067 652.933 556.4 649.067 559.467 641.067L561.867 634.933L534.267 524.4C519.067 463.6 506.933 413.333 507.333 412.667C507.733 412.133 546.4 379.067 593.2 339.333C651.333 290.133 679.2 265.6 680.533 262.667C683.467 256.533 683.2 250.667 679.733 244.533C674 234.4 678.667 235.067 554.667 226.4L443.333 218.667L401.333 114.4C378.133 57.0666 358.133 8.93331 356.667 7.33331C350.4 0.399974 338.8 -1.46669 331.333 3.19997Z" fill="white" stroke="white" stroke-width="0.133333"/>
</svg>
